<?xml version="1.0" standalone="no"?>
<!DOCTYPE svg PUBLIC "-//W3C//DTD SVG 20010904//EN"
 "http://www.w3.org/TR/2001/REC-SVG-20010904/DTD/svg10.dtd">
<svg version="1.0" xmlns="http://www.w3.org/2000/svg"
 width="24.000000pt" height="24.000000pt" viewBox="0 0 24.000000 24.000000"
 preserveAspectRatio="xMidYMid meet">

<g transform="translate(0.000000,24.000000) scale(0.100000,-0.100000)"
fill="#000000" stroke="none">
<path d="M90 203 l-22 -28 26 -3 c14 -2 38 -2 52 0 l26 3 -22 28 c-12 15 -25
27 -30 27 -5 0 -18 -12 -30 -27z"/>
<path d="M47 201 c-22 -14 -25 -20 -13 -24 14 -6 24 2 40 31 9 16 6 15 -27 -7z"/>
<path d="M169 202 c14 -27 24 -32 39 -23 8 4 1 13 -19 25 -31 18 -31 18 -20
-2z"/>
<path d="M10 139 c0 -20 4 -29 9 -24 15 16 17 48 4 52 -9 3 -13 -6 -13 -28z"/>
<path d="M207 163 c-3 -5 1 -21 8 -38 l13 -30 1 38 c1 33 -11 49 -22 30z"/>
<path d="M88 105 c15 -25 29 -45 32 -45 3 0 17 20 32 45 l28 45 -60 0 -60 0
28 -45z"/>
<path d="M32 103 c-13 -42 -5 -53 41 -53 l27 0 -20 39 c-27 54 -35 56 -48 14z"/>
<path d="M183 128 c-6 -7 -18 -28 -27 -45 l-17 -33 28 0 c47 0 55 11 40 54
-10 30 -15 35 -24 24z"/>
<path d="M75 22 c17 -10 32 -15 34 -10 4 13 0 15 -34 23 l-30 7 30 -20z"/>
<path d="M148 33 c-10 -2 -18 -11 -18 -19 0 -13 20 -6 59 23 6 4 -20 2 -41 -4z"/>
</g>
</svg>
